<svg width="16" height="18" viewBox="0 0 16 18" fill="none" xmlns="http://www.w3.org/2000/svg">
<path d="M14.6666 14.8148L13.3333 16.2963L9.33331 11.8518V10.3704H10.6666L14.6666 14.8148Z" fill="#797777"/>
<path d="M5.99998 11.8518C3.39998 11.8518 1.33331 9.55555 1.33331 6.66666C1.33331 3.77777 3.39998 1.48148 5.99998 1.48148C8.59998 1.48148 10.6666 3.77777 10.6666 6.66666C10.6666 9.55555 8.59998 11.8518 5.99998 11.8518ZM5.99998 2.96296C4.13331 2.96296 2.66665 4.59259 2.66665 6.66666C2.66665 8.74074 4.13331 10.3704 5.99998 10.3704C7.86665 10.3704 9.33331 8.74074 9.33331 6.66666C9.33331 4.59259 7.86665 2.96296 5.99998 2.96296Z" fill="#797777"/>
<path d="M8.41583 9.92685L8.8873 9.40314L10.537 11.2366L10.0655 11.7603L8.41583 9.92685Z" fill="#797777"/>
</svg>
